<svg xmlns="http://www.w3.org/2000/svg" viewBox="0 0 68 68" width="68" height="68">
	<style>
		tspan { white-space:pre }
		.shp0 { opacity: 0.722;fill: #f5c506 } 
		.shp1 { fill: #f5f4f2 } 
	</style>
	<g id="bnner+header">
		<g id="player">
			<path id="Ellipse 2" class="shp0" d="M34.5 1C53 1 68 16 68 34.5C68 53 53 68 34.5 68C16 68 1 53 1 34.5C1 16 16 1 34.5 1Z" />
			<path id="Shape 10" class="shp1" d="M28.01 20.12C28.01 19.22 28.44 18.58 29.3 18.21C30.16 17.84 30.93 17.99 31.6 18.65L46.4 33.47C46.82 33.9 47.02 34.4 47 34.99C47 35.56 46.8 36.05 46.4 36.46L31.6 51.34C30.93 52.02 30.16 52.16 29.3 51.78C28.44 51.41 28.01 50.76 28.01 49.82L28.01 20.12L28.01 20.12Z" />
		</g>
	</g>
</svg>